<svg xmlns="http://www.w3.org/2000/svg" width="44" height="44" viewBox="0 0 44 44">
    <g fill="none" fill-rule="evenodd">
        <g fill-rule="nonzero">
            <g>
                <g transform="translate(-137 -2605) translate(137 2605) translate(2 1)">
                    <ellipse cx="20.767" cy="21.17" fill="#797979" opacity=".064" rx="20.748" ry="21.151"/>
                    <g fill="#FF1227" transform="translate(17.882 18.23)">
                        <ellipse cx="2.885" cy="2.941" rx="2.803" ry="2.857"/>
                    </g>
                </g>
                <g fill="#000">
                    <path d="M5.072 9.937c-.534-.338-1.24-.18-1.579.354C.883 14.414-.273 19.373.24 24.254c.52 4.954 2.75 9.625 6.278 13.153 4.258 4.259 9.852 6.388 15.445 6.388 5.594 0 11.187-2.13 15.445-6.388 8.517-8.516 8.517-22.374 0-30.89C33.884 2.994 29.221.765 24.276.242c-4.872-.517-9.826.63-13.947 3.228-.535.337-.695 1.043-.358 1.577.337.535 1.043.695 1.577.358C19.318.508 29.286 1.63 35.79 8.135c7.625 7.624 7.625 20.03 0 27.655s-20.031 7.625-27.656 0C1.72 29.376.581 19.167 5.426 11.515c.338-.534.18-1.24-.354-1.578z"
                          transform="translate(-137 -2605) translate(137 2605)"/>
                    <path d="M36.829 23.124h1.41c.632 0 1.144-.512 1.144-1.143 0-.632-.512-1.144-1.144-1.144h-1.41c-.632 0-1.144.512-1.144 1.144 0 .631.512 1.143 1.144 1.143zM4.541 21.944c0 .631.512 1.143 1.144 1.143h1.41c.632 0 1.144-.512 1.144-1.143 0-.632-.512-1.144-1.144-1.144h-1.41c-.632 0-1.144.512-1.144 1.144zM23.124 7.095v-1.41c0-.632-.512-1.144-1.143-1.144-.632 0-1.144.512-1.144 1.144v1.41c0 .632.512 1.144 1.144 1.144.631 0 1.143-.512 1.143-1.144zM20.8 36.829v1.41c0 .632.512 1.144 1.144 1.144.631 0 1.143-.512 1.143-1.144v-1.41c0-.632-.512-1.144-1.143-1.144-.632 0-1.144.512-1.144 1.144zM16.23 14.612c-.447-.446-1.17-.446-1.618 0-.446.447-.446 1.171 0 1.618l3.876 3.876c-.297.553-.466 1.185-.466 1.856 0 2.172 1.768 3.94 3.94 3.94 2.172 0 3.94-1.768 3.94-3.94 0-.67-.17-1.303-.466-1.856l7.82-7.82c.447-.447.447-1.171 0-1.618-.447-.447-1.17-.447-1.617 0l-7.82 7.82c-.554-.297-1.186-.466-1.857-.466-.67 0-1.303.17-1.856.466l-3.876-3.876zm7.385 7.35c0 .911-.742 1.653-1.653 1.653s-1.652-.742-1.652-1.653.74-1.652 1.652-1.652c.911 0 1.653.74 1.653 1.652zM8.134 8.134c.213-.213.336-.508.336-.809 0-.3-.123-.595-.336-.808-.213-.213-.507-.336-.809-.336-.3 0-.596.123-.808.336-.213.212-.336.507-.336.808 0 .302.123.596.336.809.212.212.507.335.808.335.302 0 .596-.123.809-.335z"
                          transform="translate(-137 -2605) translate(137 2605)"/>
                </g>
            </g>
        </g>
    </g>
</svg>
