<svg version="1.1" viewBox="0 0 1200 900" xmlns="http://www.w3.org/2000/svg">
    <g fill="#ccc">
        <path d="m753.11 498.64-.26276.14485-.26276.16161-.2354.15667-.17778.13795-.19242.16062-.19243.17638-.18657.18328-.1807.1951-.18461.21087-.17973.22664-.1602.21087-.11819.18327-.0928.1754-.082.19905-.0723.21678-.0547.2424-.0449.27492-.0283.30448-.0117.35966v21.125h-12.825v-93.483h12.825v55.121l.29889-.12317.38681-.15372.38876-.15766.39169-.15766.39853-.16061.40927-.16653.41025-.16357.41416-.16751.4249-.17343.43077-.16948.42783-.17047.42978-.16653.42979-.16751.42979-.16357.42783-.16062.42881-.16062.42685-.15667.42393-.1547.4083-.15077.3956-.14189.38583-.14189.37606-.13795.36629-.13303.35262-.12908.34969-.12909.16996-.0591.16996-.0641.16508-.0591.16801-.0631.17387-.0631.16214-.0601.16703-.0591.17387-.067.1641-.0562.1514-.0601.15043-.0562.14456-.0572.14457-.0572.12502-.0522.13187-.0571.15043-.066.66714-.27788.52356-.26408.44346-.27097.3663-.27394.29498-.26999.22271-.26506.16703-.25226.14261-.30152.14457-.37839.13577-.40301.11331-.38725.0889-.36853.0703-.34882.0459-.32715.0264-.30645.009-.32123v-20.14h12.939v21.926l-.0215.9095-.0723.92724-.11917.91836-.16801.90359-.21489.89767-.26276.88191-.30964.8691-.36043.86318-.42295.8622-.48937.83757-.54895.81195-.61245.77844-.66617.74593-.7238.71537-.57142.50057 10.759 33.985h-13.696l-8.9942-28.368-.0205.01-.40244.14682-.40048.14584-.40341.14485-.39756.13893-.38387.13697-.37314.13598-.36434.13303-.35262.12908-.33797.1281-.32917.12613-.32039.12317-.34383.13499-.38778.13598-.34285.12318-.33895.12514-.33894.13302-.33309.13106-.3282.13893-.32527.13894-.4249.19215-.3995.11923-.26764.0946-.26862.1074-.26569.11627zm-36.622-27.202-.21977-.58926-.2696-.57053-.31941-.54096-.35164-.49466-.37411-.40597-.45811-.35277-.58217-.32517-.72184-.2897-.85567-.2355-.9973-.17638-1.1282-.10741-1.2728-.0374-.62807.01-.60854.0306-.57435.0483-.54211.065-.50109.0857-.46886.10051-.43077.11627-.40243.13303-.3829.15076-.3663.16062-.33796.16948-.31258.17737-.28424.18229-.26276.18919-.24029.19511-.21684.20101-.20415.21481-.1934.2158-.16899.21777-.14847.21481-.13089.21087-.11233.21481-.0967.20988-.084.21777-.0781.2355-.0703.25226-.0596.24831-.0479.23353-.0361.23354-.0264.2286-.0147.22467-.006.2424v2.3048l.007.30153.0186.26211.0274.24535.0381.22762.0479.21284.0557.19806.0664.18624.0801.19215.0996.21087.11331.22466.11428.21284.11722.20299.12405.19806.12307.1882.12992.18328.13088.17244.13089.1616.12503.14091.12308.13204.12112.11332.11721.10445.10647.0857.1094.0749.12503.0818.15434.0906.16605.0946.16214.0946.14164.0828.14066.0818.21196.11923.004.003.21293.0719.24322.0857.27839.10642.31941.12317.35555.14189.39364.16062.43174.17342.46202.19117.47374.19313.49523.19806.5177.20496.53528.21087.55482.21382.57239.22368.59389.22664.61244.23353.6144.2355.61928.23649.62319.23846.63589.2424.63394.24339.64272.24536.64468.2424.64077.24634.62124.23551.60072.22663.58607.21777.56947.21382.54798.20496.53137.1951.5636.20398 1.0989.48874 1.0461.5725.99144.65527.92501.73608.86543.81884.79706.90162.72673.9765.65445 1.0415.57826 1.0898.49913 1.1184.42588 1.1519.34578 1.1805.27058 1.209.18851 1.2347.11624 1.2603.0361 1.2554v5.8699l-.0117.6267-.0391.65133-.0645.66808-.0899.67301-.11331.68089-.1387.68976-.16215.70553-.19243.73016-.23638.76465-.29597.76267-.34675.74692-.39756.72326-.44053.70257-.49132.6799-.53626.65823-.58411.63655-.63492.6198-.69058.59221-.73943.56068-.78534.52619-.83026.49367-.87814.46903-.92208.43455-.96409.40696-.52551.20102-.54114.18525-.55384.17047-.57142.15667-.58802.14584-.60561.12908-.61831.11627-.63296.10347-.6476.0916-.66715.0818-.68277.066-.6984.0542-.71404.0434-.73454.0286-.74529.0187-.76482.007-.76092-.007-.74724-.0187-.73161-.0286-.71501-.0434-.69743-.0542-.68375-.066-.66812-.0818-.64858-.0916-.63198-.10347-.61831-.11627-.60365-.12908-.58803-.14584-.57044-.15667-.55579-.17047-.54017-.18525-.52746-.20102-.96311-.40696-.92307-.43455-.87715-.46903-.83125-.49367-.78435-.52619-.73846-.56068-.68961-.58827-.63881-.62374-.58315-.63655-.53332-.65823-.49132-.6799-.44347-.70257-.39559-.72326-.34579-.74396-.29596-.76563-.24127-.76761-.19047-.73016-.16117-.70257-.13773-.68976-.11526-.68385-.0889-.67005-.0645-.66414-.0381-.65232-.0147-.62669v-5.4442h12.77l.085 2.7906.084.88388.13479.80899.18071.73115.22857.65823.26861.58826.31258.52915.33992.45327.3829.38429.47374.3439.59779.31433.73357.27393.87422.22664 1.0061.16751 1.138.10642 1.264.0315 1.2444-.0315 1.1194-.0976.99046-.16061.86055-.21679.73064-.2621.59291-.29857.47178-.32813.37509-.35868.33015-.42174.30183-.50155.26471-.57546.22662-.66414.18461-.74987.13382-.84052.083-.93216.0274-1.0327-.009-.47889-.0303-.45327-.0498-.42174-.0674-.39021-.084-.35966-.1006-.32418-.11038-.29857-.1348-.2897-.16214-.30645-.17485-.30152-.17875-.28379-.17973-.26704-.18559-.2493-.18949-.23254-.19048-.21087-.16801-.17737-.23345-.19806-.26861-.21383-.2735-.202-.27839-.18525-.28424-.17342-.28913-.16062-.29597-.1478-.30671-.135-1.6312-.65232-.80878-.32123-.79413-.31137-.77947-.30645-.76678-.29463-.7531-.2897-.73943-.28379-.64566-.24338-.6437-.24832-.63393-.23944-.63198-.2424-.62515-.23945-.62221-.23846-.6144-.23255-.61244-.23452-.58119-.22269-.53919-.20102-.50207-.18623-.45909-.17047-.41513-.15076-.37411-.13303-.33211-.11627-.37215-.12613-.38486-.17342-.33992-.16949-.34187-.17933-.35164-.19511-.36044-.21087-.36922-.22762-.37607-.2424-.39169-.26112-.41025-.28675-.41416-.31729-.40439-.33404-.40048-.35572-.39267-.37444-.38876-.39316-.38192-.41583-.38095-.43849-.37606-.46904-.36434-.50056-.34774-.51929-.3321-.54787-.30965-.56068-.29499-.58629-.2735-.60108-.26568-.63655-.24322-.67301-.21294-.70257-.17875-.72129-.14652-.74297-.11233-.75874-.0791-.77746-.0459-.79125-.0176-.79618v-5.9891l.0205-.86614.0606-.87501.10354-.85629.14261-.85136.18559-.82771.22759-.81195.2696-.79322.30964-.77746.35457-.75676.38974-.73312.43271-.71242.46886-.69272.51086-.6671.54505-.64837.58412-.62078.62709-.61094.68278-.58235.72477-.54787.76678-.50648.80682-.46706.84785-.4247.884-.38429.92306-.34291.96018-.30843 1.0012-.26802 1.0334-.22959 1.0745-.1951 1.1126-.16062 1.1487-.11923 1.1858-.0887 1.2259-.0502 1.264-.0197 1.2962.0197 1.2522.0571 1.2093.0966 1.1653.13599 1.1253.17342 1.0852.21678 1.0422.25521.99632.29562.95042.33404.90743.35867.87618.39119.83515.4247.80096.45623.76483.4917.7277.52224.68668.55772.64273.58827.60268.61487.56263.64542.51672.67005.47276.70257.43076.72819.38388.7548.33211.7745.28717.78041.24518.79126.21001.80307.168.81195.13382.82574.0938.84052.0567.84742.0166.83363v4.8214h-12.877l-.0879-2.5669-.0762-.69567-.12308-.65823zm-27.037 65.229h93.259c10.851-.29956 10.327 15.858 0 16.453h-104.63c6.1948-3.8952 10.463-9.765 11.375-16.453zm-342.39-112.48 99.672-76.565c5.6859-4.6756 11.801-5.0412 17.701.20496l82.383 76.745c4.0204 3.8075 1.304 16.998-6.1948 16.781h-123.78v95.316h214.39c.91231 6.6877 5.176 12.558 11.372 16.453h-229.35c-4.9777 0-13.057-4.4716-12.717-12.07v-101.64c-.44347-4.8372 2.441-13.696 12.294-14.511h111.64l-69.819-62.681-97.884 75.193c-7.6658 4.9771-17.991-6.1349-9.7073-13.223zm327.76 120.32-.82734.5794-.88301.54786-.93869.51929-.99339.48776-.54896.2424-.57142.22763-.59291.20988-.61146.19313-.63101.17343-.65445.16061-.67202.14091-.69352.12613-.71208.10937-.73552.0985-.75506.0818-.77752.0631-.79706.0532-.81952.0345-.84199.0227-.86055.006-.86055-.006-.84199-.0227-.81854-.0345-.79804-.0532-.77557-.0631-.75603-.0818-.73552-.0985-.71403-.10937-.69156-.12613-.67203-.14091-.65347-.16061-.63394-.17638-.60854-.19018-.59388-.20988-.57142-.22763-.55091-.2424-.99437-.48776-.93869-.51929-.88301-.54786-.82734-.5794-.77069-.60798-.715-.64246-.65445-.67399-.589-.70553-.51575-.69863-.4669-.70257-.41709-.71439-.3702-.72819-.32038-.73607-.27351-.74889-.21586-.75972-.16118-.74297-.11526-.67104-.0938-.60797-.0821-.56954-.0684-.54492-.0537-.51239-.04-.48185-.0254-.45622-.009-.41583v-5.0707h12.939v2.9256l.003.23254.0107.23058.0205.2424.0225.24536.0342.25226.0401.26112.0488.27098.0518.25225.0557.21678.0664.20102.082.20791.10061.21087.12015.22171.14554.22861.16508.23747.17875.22959.19535.22073.21001.20791.23443.20102.26373.19806.29499.19805.32234.1892.35458.18328.37508.17342.39462.15372.42491.13204.47081.11627.51965.0975.56067.0828.60268.0532.64956.0345.69157.0128.75017-.0128.70133-.0345.64859-.0562.60268-.0798.55383-.1005.50012-.11628.44639-.13598.4122-.15667.39853-.17343.38095-.18919.35164-.18919.31746-.1951.2901-.19511.25983-.19806.22661-.19609.20708-.20101.19048-.20792.16702-.20495.14848-.20398.12405-.202.10647-.19214.0879-.19117.0703-.18919.0625-.21481.0635-.25422.0567-.26211.0459-.24832.0391-.24535.0312-.23649.0195-.22073.0117-.21382.003-.22959v-2.3186l-.006-.29857-.0176-.26112-.0274-.24241-.0391-.22663-.0469-.21383-.0557-.1951-.0654-.18624-.0811-.1951-.10159-.21481-.11135-.22072-.11526-.20989-.11917-.20791-.12015-.19313-.126-.19117-.12796-.18328-.13187-.17244-.12795-.16061-.12503-.14189-.12601-.13303-.11917-.11627-.11526-.0976-.11135-.0877-.1094-.0788-.12698-.0828-.29988-.1754-.1768-.10051-.14554-.0857-.13382-.0749-.21587-.12318-.2227-.0759-.24029-.0877-.27839-.10346-.3155-.12317-.35555-.1419-.3956-.16061-.4376-.17934-.45713-.18525-.47472-.19215-.4923-.20298-.51086-.20397-.52844-.20693-.54798-.22073-.56263-.22072-.58314-.22959-.59193-.23058-.60463-.23649-.6105-.2355-.62221-.2355-.63003-.23945-.64077-.24339-.64761-.24535-.65542-.24635-.65249-.24141-.63589-.23649-1.1497-.42765-.63198-.23354-.55774-.20495-.53431-.19511-.56849-.20791-1.092-.4848-1.051-.5725-.98948-.65528-.92697-.73705-.8625-.81786-.79706-.89866-.72868-.97552-.65543-1.0484-.5763-1.0898-.50109-1.1174-.42295-1.1489-.34676-1.1815-.26862-1.209-.19047-1.2347-.11624-1.2603-.0381-1.2554v-46.833h12.939v44.547l.0107.50648.0322.44736.0537.41878.0703.38134.0889.35178.10354.32222.11917.29167.14164.2897.17582.30645.18949.31137.19145.29266.19048.27098.19535.25422.19634.24043.19633.21679.17387.18032.23834.20397.27252.21777.27057.20495.27155.18821.27643.17638.27252.16062.2735.1478.26373.12613.40928.16653.4542.18328.46105.18229.46885.18328.47863.18525.48448.18328.48742.18131.50207.18328.43467.16061.44346.16653.45225.17343.46104.17638.47082.18623.47667.18525.48644.19609.49425.19806.48937.19806.47277.18821.46788.18623.45713.17934.44932.17343.4376.16652.42686.15766.37997.1419.21978.066.29303.10445.15824.066v-55.574h12.939v77.871h-.11331l-.006.36163-.0264.48284-.0391.49958-.0537.52323-.0684.55082-.085.57645-.0938.60403-.11722.66119-.15824.72227-.2188.74888-.27252.74002-.32136.7272-.36923.71834-.41904.70848-.46397.69863-.51672.69961-.58607.70159-.65641.67399-.71305.64246zm-40.37-35.262v12.961l-2.527-.0177-.84003-.0227-.81855-.0345-.79901-.0512-.77654-.065-.75506-.0818-.7365-.0985-.71305-.10937-.69254-.12613-.67203-.14288-.65347-.15963-.63296-.17638-.60854-.18919-.59486-.21087-.57142-.22664-.54993-.2424-.99339-.49071-.94065-.51732-.88399-.54393-.83124-.57644-.77557-.60502-.7238-.63951-.66422-.67399-.60267-.69863-.52942-.69961-.4796-.70454-.42784-.7144-.38192-.7272-.33015-.74002-.27741-.75676-.22075-.76169-.16313-.74297-.11428-.674-.0957-.60403-.082-.57349-.0693-.54491-.0537-.51337-.0391-.48481-.0244-.45327-.008-.41583v-40.072h-7.2331v-12.451h7.2331v-16.478h12.938v16.478h9.7161v12.451h-9.7161v37.928l.005.23254.009.22762.0205.24536.0225.24536.0342.25225.041.26113.0488.27097.0518.25127.0567.21777.0654.20102.082.20791.0996.21383.1221.22171.14359.22565.16605.23648.1768.2296.19438.21678.21196.20791.23541.20496.26471.19904.29499.19806.32136.18919.35457.1823.37411.17244.39463.15569.42587.13105.47081.11726.51575.0975.56458.0779.60268.0572.64858.0345.70427.0128zm-50.451-64.243h12.825v-16.17h-12.825zm0 77.192h12.825v-68.334h-12.825zm-21.92-.00098h12.824v-93.483h-12.824zm-35.48-25.776-.27643.14879-.27644.16062-.27252.1754-.27155.18623-.2735.20792-.27447.22072-.23345.20101-.17192.17639-.19633.22072-.20024.2424-.19634.25226-.18949.26999-.19048.29265-.19145.31237-.17387.30546-.14163.28576-.12014.2966-.10257.32123-.0889.35276-.0713.38035-.0528.41879-.0312.44735-.0137.47594.0313 1.0268.083.93216.13479.83953.18364.75283.22564.66217.26568.57545.30085.50156.3282.42075.37606.35671.47179.32714.59584.30152.72868.26211.86153.21777.99046.16062 1.1184.0976 1.2415.0315 1.2669-.0315 1.1389-.10741 1.0061-.16751.87129-.22565.73552-.27492.59975-.31433.47277-.3439.37899-.38331.3448-.45327.3116-.52914.26959-.58926.22759-.65822.18169-.73016.13382-.80604.083-.88486.0293-.99227v-10.993l-.16508.0729-.26862.10445-.22563.0749-.82148.30546-.43956.16949-.44639.17047-.4542.18032-.47081.18525-.47472.18919-.48644.19511-.49035.20101-.48937.1951-.4796.1892-.46788.18229-.46202.17737-.45323.17244-.44639.16751-.43174.15766-.49718.18525-.4923.18229-.48644.18525-.47668.18328-.46592.1823-.463.18327-.45811.18525-.40635.16358zm9.8685-43.108 1.0735.1951 1.0364.23058.9973.26704.96213.3094.92209.34193.88496.38429.8459.42568.80878.46608.76678.50648.72673.54885.67691.58236.62807.61093.58608.62078.547.64838.50792.66709.47082.68977.43369.71439.39169.73311.34969.75677.31257.77746.26764.79421.22759.81195.18559.82771.14359.84742.10158.8622.0606.87599.0186.86319v36.716l-.0117.62571-.0381.65133-.0635.66808-.0918.67399-.11331.67991-.13773.68976-.16214.70553-.19341.73016-.23638.76563-.29596.76169-.34774.74692-.39462.72326-.44151.70257-.49132.68089-.53626.65823-.58412.63556-.63588.6198-.69059.59319-.73943.5597-.78534.52618-.82831.49368-.87911.47002-.92208.43356-.96507.40696-.52551.20102-.54114.18623-.55384.17047-.57142.15667-.58607.14485-.60756.12909-.61733.11627-.63491.10445-.64663.0916-.66617.0818-.68278.066-.6984.0542-.71403.0434-.73356.0286-.74627.0177-.76482.007-.7619-.007-.74528-.0177-.73357-.0286-.71501-.0434-.69742-.0542-.68375-.066-.66617-.0818-.64957-.0916-.63295-.10445-.61733-.11627-.60463-.12909-.58901-.14485-.56946-.15667-.55579-.17047-.54017-.18623-.52648-.20102-.96507-.40696-.92208-.43356-.87521-.47002-.83319-.49368-.78339-.52618-.73845-.5597-.69059-.58925-.63881-.62374-.58217-.63556-.53528-.65823-.49034-.68089-.44444-.70257-.39462-.72326-.34579-.74396-.29596-.76465-.24127-.76859-.18949-.73016-.16215-.70257-.13773-.68976-.11526-.68286-.0879-.67104-.0654-.66414-.0381-.65232-.0137-.62669v-5.8748l.0371-1.2534.11624-1.2632.19145-1.2307.26862-1.21.34676-1.1805.42197-1.1519.50109-1.1154.57728-1.0918.6564-1.0465.72673-.97257.79706-.90062.8625-.81885.92892-.73607.98754-.65527 1.05-.5725 1.096-.48875.59876-.21678 1.0461-.38824.56752-.21284.58802-.21776.60072-.22762.62026-.23551.63882-.24634.64957-.24536.63979-.2424.63784-.2424.63003-.2424.62612-.23846.61928-.23748.61245-.2355.61146-.23255.5978-.22762.57142-.22269.55579-.21481.53235-.21087.51867-.20496.49328-.19806.47569-.19215.46105-.19215.43467-.17244.39266-.1616.35458-.13795.31843-.12613.28034-.10642.24224-.0857.20806-.0729h.007l.084-.0493.12893-.0729.14066-.0818.14652-.0828.15824-.0897.16214-.0956.15434-.0946.13382-.0847.10744-.0759.1055-.0818.1133-.0995.12406-.12121.12209-.12809.12406-.13894.13088-.16357.13382-.17638.12699-.17934.12503-.18919.12112-.19511.11916-.20791.11527-.21087.11037-.21974.10159-.21776.083-.19511.0645-.18328.0547-.1951.0479-.21087.0381-.22959.0283-.24339.0166-.26014.008-.30349v-2.3136l-.005-.23945-.0156-.22072-.0264-.22959-.0371-.23354-.0459-.2355-.0606-.24536-.0684-.24536-.0811-.2424-.084-.22072-.0948-.20791-.11233-.21186-.13186-.21382-.14848-.21383-.16898-.21383-.19047-.22072-.20708-.21481-.2188-.20102-.23736-.1951-.26178-.18821-.28717-.18327-.3116-.17737-.33894-.1685-.36337-.16061-.38583-.15175-.40048-.13303-.43076-.11627-.46691-.0995-.50402-.0857-.53821-.066-.57728-.0473-.60854-.0315-.63198-.009-1.2698.0374-1.1292.10643-.99534.17736-.85762.23551-.72087.2897-.58412.32418-.45616.35277-.37606.40695-.34773.49072-.32039.54392-.26862.57053-.22075.59221-.17094.62374-.12698.65823-.0752.69863-.0928 2.563h-12.873v-4.8234l.0186-.83461.0557-.84742.0957-.83461.13186-.82476.16899-.81588.21001-.8021.24517-.78731.28522-.78436.33504-.7745.38192-.75578.42979-.7272.47374-.70257.51965-.67104.55872-.64542.60268-.61388.64468-.58926.68766-.55673.72672-.52225.76385-.4917.79999-.45623.83808-.42568.87423-.3902.90645-.35966.95042-.33404.99827-.29463 1.0422-.25521 1.0852-.21777 1.1243-.17343 1.1673-.13499 1.2073-.0975 1.2522-.0572 1.2933-.0187 1.2669.0187 1.2259.0503 1.1878.0887 1.1467.11923zm-50.664 12.694-.56067-.0788-.60854-.0572-.64761-.0345-.69156-.0118-.71892.0118-.67984.0345-.63784.0572-.59291.0788-.54798.1005-.50695.12022-.46007.13401-.42783.15864-.41025.1754-.39169.19018-.35946.19116-.32722.19215-.29206.19608-.26276.19806-.23052.19511-.20219.1951-.18364.20102-.16996.21087-.14749.20791-.12503.1951-.1055.19905-.0899.1951-.0733.19215-.0635.20496-.0586.25127-.0606.26506-.0469.24832-.0391.23057-.0273.21678-.0215.20201-.01.1882-.23736 8.8486.24127-.12022.30573-.13499.31062-.12219.30378-.10445.29499-.0936.29206-.0857.29499-.0749.29987-.07.29694-.0601.30085-.0503.28913-.0404.27155-.0315.24712-.0256.23834-.0217.22564-.0197.20805-.0148.20122-.0128.19536-.007.17387-.003h6.4185l.52258-.0246.45616-.0729.43467-.11332.41709-.16456.40439-.20692.39169-.25817.38583-.31532.37997-.37149.34773-.40301.28913-.40893.24029-.41583.19243-.43159.14945-.44046.10744-.46608.0664-.4917.0244-.56659v-2.1757l-.003-.23354-.0117-.22663-.0176-.23846-.0254-.24536-.0313-.25225-.04-.25916-.0498-.26703-.0537-.26113-.0537-.21185-.0645-.19116-.0791-.19806-.0977-.202-.11624-.20792-.1387-.21382-.16019-.21777-.17582-.21481-.19243-.20791-.21099-.19806-.23833-.19806-.27057-.19806-.29695-.19215-.32917-.18919-.36141-.18525-.379-.17343-.39071-.15076-.42686-.13598-.47179-.11627zm-2.734-13.131.86446.007.83808.0217.81952.0374.79706.0503.78045.066.7531.0818.73455.0946.71305.11036.69645.12908.6691.1419.65152.15766.63295.17638.61245.19215.59095.20791.57045.22565.54993.24043.99632.49466.93869.51929.88204.54786.82831.57645.77069.61093.71208.63852.6564.67695.58705.69961.52062.70257.46495.70454.41807.7144.3702.72425.32332.74001.26959.74987.21782.76169.15629.7341.11819.67399.0948.60699.083.57349.0664.54491.0557.51338.0391.48185.0244.46016.007.41189v5.9832l-.0127.59713-.0371.63064-.0664.64148-.0889.64935-.11331.66119-.14066.67399-.16215.68287-.19438.71833-.25201.77746-.33015.79717-.39365.79322-.45615.78731-.51477.78731-.57728.78436-.63394.78731-.67105.76169-.34285.39317-.39071.404-.40439.37444-.41514.34587-.43271.32418-.45128.2966-.46202.26999-.45518.22762-.42295.19806-.40341.17934-.39365.16751-.38388.15372-.37606.14485-.3702.135-.36043.12021-.32723.10149-.39657.12909-.43663.11627-.4376.0995-.44248.0788-.44151.0641-.44834.0443-.45421.0276-.44053.007h-8.5606l-.60463.0306-.54114.0857-.52258.14189-.50402.1951-.48839.25522-.48351.31433-.47472.38134-.46397.44342-.421.4848-.3575.49761-.29401.51338-.24029.5321-.18462.56363-.13675.59517-.0821.6395-.0312.71735v5.5112l.0156.65527.04.58531.0664.53506.0889.48874.11038.43751.12991.3902.14457.34587.1934.37148.0996.18033.0908.16061.0908.14781.0938.14189.0967.13598.0928.12219.0948.11627.0879.0975.0742.0779.085.0739.1094.0847.12991.0907.1514.0975.17485.0956.19926.10346.28132.12909.24419.12613.19341.0916.21782.0897.23638.0956.25787.0946.27057.0877.29304.0857.29987.0847.3116.0719.33113.0631.36434.0572.3956.0473.42783.0375.45909.0246.48937.0168.51379.006.67301-.01.62319-.0305.57923-.0473.53235-.067.48839-.0818.43467-.10051.38779-.11036.36531-.13204.36727-.14879.34579-.15077.31257-.1409.28034-.13599.23736-.11923.19438-.11134.14944-.0907.0606-.0404.23442-.20791.24127-.2493.21685-.25127.1934-.26506.16996-.26704.1475-.27689.12796-.28379.1133-.31532.10452-.34586.0948-.36557.0801-.37444.0664-.38134.0518-.3912.0361-.39907.0234-.40992.0371-2.2476h12.907v4.8234l-.0215.90358-.0674.9164-.11526.90457-.16214.88486-.20611.87206-.25396.85234-.30183.84151-.34773.81589-.39658.80603-.45127.78337-.50012.74987-.547.71833-.59193.68976-.6398.65823-.68277.62966-.73064.59417-.57825.42273-.62319.40302-.66324.38429-.70231.36163-.74334.34587-.78631.32813-.82831.31532-.87716.30152-.94357.28379-1.0071.24535-1.0559.20398-1.1067.16455-1.1575.12909-1.2102.0916-1.2601.0532-1.3128.0187-.98069-.009-.95042-.0355-.92208-.0562-.89279-.0788-.86054-.0976-.83613-.12613-.80585-.1478-.77557-.17343-.73064-.18624-.71012-.19805-.68863-.21087-.66715-.2227-.64663-.23944-.62612-.25226-.60268-.26802-.58216-.27985-.56068-.29364-.53723-.30743-.51574-.31828-.49719-.33404-.47374-.34685-.45323-.36163-.43271-.37444-.39951-.38725-.3663-.37444-.34382-.36853-.33114-.37149-.31745-.37542-.30378-.37149-.28815-.37838-.27546-.38035-.2901-.42174-.54407-.94103-.47277-.98636-.39462-1.0238-.31745-1.0583-.23639-1.0888-.15921-1.1184-.0821-1.1391-.008-1.1115v-36.7l.009-.43849.0244-.47495.0401-.50057.0537-.52618.0684-.55083.082-.57644.0977-.60107.11526-.66513.16215-.7272.21587-.74297.27154-.74002.32039-.7272.37215-.71834.41611-.7075.46398-.69567.51672-.70257.58998-.70257.65542-.67399.71208-.63852.77068-.61093.82832-.57645.88204-.54786.93771-.51929.99632-.49466.55286-.2424.56947-.22368.59291-.20791.60951-.19215.63394-.17638.65054-.15766.67105-.1419.69352-.12908.71598-.11036.73455-.0946.75408-.0818.77752-.066.79999-.0503.81659-.0374.84003-.0217zm-30.855.12317h.47668l.44834-.004.43369-.003.41709-.01.40048-.006.3829-.009.36337-.0128.36434-.0158.38876-.0128h.39755l.40635.009.41122.0197.41514.0315.41709.0404.42197.0542 2.2779.3301-2.944 12.404-1.6107.01-.30867.002-.29108.007-.27741.006-.26275.01-.2481.01-.23541.0118-.22271.0128-.2315.0158-.25982.0128-.2696.0128-.27545.006-.28424.01-.2989.003-.30769.004h-.29889l-.69841.0118-.6437.0374-.60268.0631-.55579.0818-.51183.10741-.46886.12218-.41904.14288-.38974.16357-.37704.18525-.36825.19806-.33699.20496-.30476.20102-.26764.20594-.24615.20693-.22075.20791-.19243.20791-.17484.21383-.16117.22072-.13968.21678-.11722.20496-.0947.19905-.082.20101-.0645.19511-.0547.20791-.0508.25225-.0479.27394-.042.26506-.0332.24832-.0244.24535-.0186.2424-.0117.2296-.004.23057v50.255h-12.938v-52.399l.009-.41287.0254-.45721.0391-.48086.0547-.51732.0684-.54195.082-.56955.0948-.60797.11526-.67301.16019-.74002.21685-.75972.2735-.74888.31941-.73706.37216-.7272.41611-.71538.46397-.70159.51672-.70158.58998-.70257.6564-.67695.71208-.63951.77166-.61093.82831-.57546.88302-.54885.93771-.51535.99632-.49465.55482-.24339.56653-.22664.59194-.20791.61147-.19116.63295-.17343.6525-.16061.67008-.14288.69351-.12908.71599-.10642.73356-.0976.75408-.0818.77655-.066.79999-.0512.81757-.0345.83906-.0207zm-452.22-452.99h1200v900h-1200z"
              fill="#ccc" fill-rule="evenodd"/>
    </g>
</svg>
