<svg xmlns:xlink="http://www.w3.org/1999/xlink" xmlns="http://www.w3.org/2000/svg" width="14" height="14"
     viewBox="0 0 14 14">
    <defs>
        <path id="omu6pgjbda"
              d="M3.435 6.673l.455.951h-.47l-1.712 4.992h10.878l-1.712-4.992h-.502l.502-.95h.043c.38 0 .723.237.846.599l1.754 5.13c.09.265.048.56-.114.788-.171.233-.442.375-.732.375H1.623c-.29 0-.56-.142-.732-.375-.161-.228-.204-.523-.114-.789l1.754-5.13c.123-.361.466-.599.846-.599h.058zm3.712-5.36l.19.004c1.88.098 3.375 1.655 3.375 3.56l-.008.234c-.16 2.197-2.499 4.878-3.294 5.732l-.058.05c-.143.1-.343.084-.467-.05l-.091-.099c-.902-.98-3.212-3.707-3.212-5.867 0-1.969 1.596-3.565 3.565-3.565zM6.87 9.483C5.811 8.221 4.473 6.295 4.473 4.877c0-1.474 1.2-2.674 2.674-2.674 1.475 0 2.674 1.2 2.674 2.674 0 1.418-1.339 3.344-2.396 4.607-.073.087-.176.13-.278.13-.103 0-.205-.043-.278-.13zm-1.278-4.61c0 .862.699 1.56 1.56 1.56.86 0 1.56-.698 1.56-1.56 0-.861-.7-1.56-1.56-1.56-.861 0-1.56.699-1.56 1.56zm.891 0c0-.368.3-.668.668-.668.369 0 .669.3.669.669 0 .368-.3.668-.669.668-.368 0-.668-.3-.668-.668z"/>
    </defs>
    <g fill="none" fill-rule="evenodd">
        <g>
            <g transform="translate(-94 -532) translate(94 532)">
                <mask id="rwmw2xeqsb" fill="#fff">
                    <use xlink:href="#omu6pgjbda"/>
                </mask>
                <g fill="#D60037" mask="url(#rwmw2xeqsb)">
                    <path d="M0 0H14V14H0z"/>
                </g>
            </g>
        </g>
    </g>
</svg>
